<svg width="187" height="79" viewBox="0 0 187 79" fill="none" xmlns="http://www.w3.org/2000/svg">
<path d="M26.88 26.6L14.48 41.44L14.04 40.4L7.76 48.04L6.44 42.48L19.24 26.6H26.88ZM9.8 26.6V53H2.92V26.6H9.8ZM16.72 35.32L27.36 53H19.56L11.56 39.16L16.72 35.32ZM37.2538 32.6C39.3604 32.6 41.2004 33.0133 42.7738 33.84C44.3738 34.64 45.6138 35.8267 46.4938 37.4C47.4004 38.9467 47.8538 40.8133 47.8538 43C47.8538 45.1867 47.4004 47.0667 46.4938 48.64C45.6138 50.1867 44.3738 51.3733 42.7738 52.2C41.2004 53 39.3604 53.4 37.2538 53.4C35.2004 53.4 33.3738 53 31.7738 52.2C30.1738 51.3733 28.9204 50.1867 28.0138 48.64C27.1338 47.0667 26.6938 45.1867 26.6938 43C26.6938 40.8133 27.1338 38.9467 28.0138 37.4C28.9204 35.8267 30.1738 34.64 31.7738 33.84C33.3738 33.0133 35.2004 32.6 37.2538 32.6ZM37.2538 37.44C36.4804 37.44 35.8138 37.6267 35.2538 38C34.6938 38.3733 34.2671 38.9733 33.9738 39.8C33.6804 40.6267 33.5338 41.6933 33.5338 43C33.5338 44.3067 33.6804 45.3733 33.9738 46.2C34.2671 47 34.6938 47.6 35.2538 48C35.8138 48.3733 36.4804 48.56 37.2538 48.56C38.0538 48.56 38.7338 48.3733 39.2938 48C39.8538 47.6 40.2804 47 40.5738 46.2C40.8671 45.3733 41.0138 44.3067 41.0138 43C41.0138 41.6933 40.8671 40.6267 40.5738 39.8C40.2804 38.9733 39.8538 38.3733 39.2938 38C38.7338 37.6267 38.0538 37.44 37.2538 37.44ZM57.6391 53.4C56.2791 53.4 55.0791 53.1733 54.0391 52.72C53.0257 52.24 52.2257 51.48 51.6391 50.44C51.0524 49.4 50.7591 48.04 50.7591 46.36V33H57.5591V44.76C57.5591 46.04 57.8124 46.9333 58.3191 47.44C58.8257 47.9467 59.5457 48.2 60.4791 48.2C60.9591 48.2 61.4124 48.12 61.8391 47.96C62.2657 47.7733 62.6391 47.5067 62.9591 47.16C63.2791 46.7867 63.5191 46.32 63.6791 45.76C63.8657 45.1733 63.9591 44.4933 63.9591 43.72V33H70.7591V53H64.6791L64.4791 49.24C63.8391 50.6533 62.9457 51.7067 61.7991 52.4C60.6524 53.0667 59.2657 53.4 57.6391 53.4ZM86.1666 53.4C83.8199 53.4 81.7266 52.88 79.8866 51.84C78.0732 50.8 76.6599 49.2667 75.6466 47.24C74.6332 45.2133 74.1266 42.7467 74.1266 39.84C74.1266 36.9867 74.6599 34.5467 75.7266 32.52C76.7932 30.4933 78.3132 28.9333 80.2866 27.84C82.2866 26.7467 84.6332 26.2 87.3266 26.2C90.3132 26.2 92.7266 26.7467 94.5666 27.84C96.4066 28.9067 97.8332 30.6133 98.8466 32.96L92.4866 35.48C92.1399 34.12 91.5266 33.1333 90.6466 32.52C89.7666 31.9067 88.6732 31.6 87.3666 31.6C86.0599 31.6 84.9399 31.92 84.0066 32.56C83.0732 33.1733 82.3666 34.0933 81.8866 35.32C81.4066 36.52 81.1666 38.0133 81.1666 39.8C81.1666 41.6667 81.4066 43.2267 81.8866 44.48C82.3932 45.7333 83.1266 46.6667 84.0866 47.28C85.0732 47.8667 86.2866 48.16 87.7266 48.16C88.4999 48.16 89.2066 48.0667 89.8466 47.88C90.4866 47.6933 91.0466 47.4267 91.5266 47.08C92.0066 46.7067 92.3799 46.2533 92.6466 45.72C92.9132 45.16 93.0466 44.5067 93.0466 43.76V43.36H87.0066V38.76H98.8866V53H94.2066L93.6866 46.8L94.8066 47.76C94.2466 49.5733 93.2332 50.9733 91.7666 51.96C90.3266 52.92 88.4599 53.4 86.1666 53.4ZM109.633 53.4C108.273 53.4 107.073 53.1733 106.033 52.72C105.019 52.24 104.219 51.48 103.633 50.44C103.046 49.4 102.753 48.04 102.753 46.36V33H109.553V44.76C109.553 46.04 109.806 46.9333 110.313 47.44C110.819 47.9467 111.539 48.2 112.473 48.2C112.953 48.2 113.406 48.12 113.833 47.96C114.259 47.7733 114.633 47.5067 114.953 47.16C115.273 46.7867 115.513 46.32 115.673 45.76C115.859 45.1733 115.953 44.4933 115.953 43.72V33H122.753V53H116.673L116.473 49.24C115.833 50.6533 114.939 51.7067 113.793 52.4C112.646 53.0667 111.259 53.4 109.633 53.4ZM130.238 30.68C128.852 30.68 127.838 30.4267 127.198 29.92C126.585 29.3867 126.278 28.56 126.278 27.44C126.278 26.2933 126.585 25.4667 127.198 24.96C127.838 24.4267 128.852 24.16 130.238 24.16C131.598 24.16 132.598 24.4267 133.238 24.96C133.878 25.4667 134.198 26.2933 134.198 27.44C134.198 28.56 133.878 29.3867 133.238 29.92C132.598 30.4267 131.598 30.68 130.238 30.68ZM133.638 33V53H126.838V33H133.638ZM141.079 30.68C139.692 30.68 138.679 30.4267 138.039 29.92C137.426 29.3867 137.119 28.56 137.119 27.44C137.119 26.2933 137.426 25.4667 138.039 24.96C138.679 24.4267 139.692 24.16 141.079 24.16C142.439 24.16 143.439 24.4267 144.079 24.96C144.719 25.4667 145.039 26.2933 145.039 27.44C145.039 28.56 144.719 29.3867 144.079 29.92C143.439 30.4267 142.439 30.68 141.079 30.68ZM144.479 33V53H137.679V33H144.479ZM156.88 26.64V45.88C156.88 46.84 157.106 47.5333 157.56 47.96C158.04 48.36 158.693 48.56 159.52 48.56C160.16 48.56 160.706 48.4933 161.16 48.36C161.64 48.2 162.066 47.9733 162.44 47.68L163.16 51.88C162.493 52.36 161.653 52.7333 160.64 53C159.626 53.2667 158.586 53.4 157.52 53.4C156 53.4 154.68 53.1867 153.56 52.76C152.466 52.3333 151.613 51.6533 151 50.72C150.413 49.7867 150.106 48.5467 150.08 47V28.52L156.88 26.64ZM162.84 33V37.84H146.64V33H162.84ZM176.692 40.32C176.692 39.3867 176.426 38.6533 175.892 38.12C175.386 37.56 174.692 37.28 173.812 37.28C172.932 37.28 172.172 37.5067 171.532 37.96C170.919 38.3867 170.492 39.16 170.252 40.28L164.492 38.92C164.866 37 165.852 35.4667 167.452 34.32C169.052 33.1733 171.306 32.6 174.212 32.6C176.159 32.6 177.812 32.8933 179.172 33.48C180.559 34.04 181.612 34.8933 182.332 36.04C183.079 37.16 183.452 38.5467 183.452 40.2V47.52C183.452 48.56 183.919 49.08 184.852 49.08C185.332 49.08 185.719 49.0267 186.012 48.92L185.612 52.8C184.812 53.1733 183.839 53.36 182.692 53.36C181.652 53.36 180.732 53.2 179.932 52.88C179.132 52.5333 178.506 52.0267 178.052 51.36C177.599 50.6667 177.372 49.8 177.372 48.76V48.52L178.132 48.24C178.132 49.3867 177.786 50.3467 177.092 51.12C176.426 51.8933 175.546 52.4667 174.452 52.84C173.386 53.2133 172.266 53.4 171.092 53.4C169.732 53.4 168.546 53.1867 167.532 52.76C166.519 52.3333 165.732 51.72 165.172 50.92C164.639 50.0933 164.372 49.08 164.372 47.88C164.372 46.44 164.799 45.2533 165.652 44.32C166.532 43.36 167.906 42.6933 169.772 42.32L177.332 40.76L177.292 44.36L173.452 45.16C172.652 45.32 172.052 45.56 171.652 45.88C171.279 46.1733 171.092 46.6267 171.092 47.24C171.092 47.8267 171.306 48.2667 171.732 48.56C172.159 48.8533 172.666 49 173.252 49C173.706 49 174.132 48.9333 174.532 48.8C174.959 48.6667 175.332 48.4667 175.652 48.2C175.972 47.9067 176.226 47.5467 176.412 47.12C176.599 46.6933 176.692 46.1867 176.692 45.6V40.32Z" fill="white"/>
</svg>
