<svg width="70" height="59" viewBox="0 0 70 59" fill="none" xmlns="http://www.w3.org/2000/svg">
<path d="M11.0133 11H8.88927L8.33727 9.212H5.62527L5.06127 11H2.98527L5.76927 3.08H8.24127L11.0133 11ZM6.00927 7.808H7.95327L6.98127 4.604L6.00927 7.808ZM15.6544 3.08C16.8944 3.08 17.8424 3.424 18.4984 4.112C19.1624 4.8 19.4944 5.776 19.4944 7.04C19.4944 8.304 19.1624 9.28 18.4984 9.968C17.8424 10.656 16.8944 11 15.6544 11H12.2944V3.08H15.6544ZM15.4504 9.44C16.1224 9.44 16.6104 9.24 16.9144 8.84C17.2264 8.432 17.3824 7.832 17.3824 7.04C17.3824 6.248 17.2264 5.652 16.9144 5.252C16.6104 4.844 16.1224 4.64 15.4504 4.64H14.3584V9.44H15.4504ZM24.6276 3.08C25.8676 3.08 26.8156 3.424 27.4716 4.112C28.1356 4.8 28.4676 5.776 28.4676 7.04C28.4676 8.304 28.1356 9.28 27.4716 9.968C26.8156 10.656 25.8676 11 24.6276 11H21.2676V3.08H24.6276ZM24.4236 9.44C25.0956 9.44 25.5836 9.24 25.8876 8.84C26.1996 8.432 26.3556 7.832 26.3556 7.04C26.3556 6.248 26.1996 5.652 25.8876 5.252C25.5836 4.844 25.0956 4.64 24.4236 4.64H23.3316V9.44H24.4236ZM41.1745 3.08V11H38.8825L36.4225 6.716L35.8225 5.54H35.8105L35.8585 7.004V11H34.0345V3.08H36.3265L38.7865 7.364L39.3865 8.54H39.3985L39.3505 7.076V3.08H41.1745ZM46.841 2.96C47.641 2.96 48.329 3.124 48.905 3.452C49.489 3.772 49.937 4.236 50.249 4.844C50.561 5.452 50.717 6.184 50.717 7.04C50.717 7.896 50.561 8.628 50.249 9.236C49.937 9.844 49.489 10.312 48.905 10.64C48.329 10.96 47.641 11.12 46.841 11.12C46.041 11.12 45.349 10.96 44.765 10.64C44.181 10.312 43.733 9.844 43.421 9.236C43.109 8.628 42.953 7.896 42.953 7.04C42.953 6.184 43.109 5.452 43.421 4.844C43.733 4.236 44.181 3.772 44.765 3.452C45.349 3.124 46.041 2.96 46.841 2.96ZM46.841 4.58C46.457 4.58 46.133 4.672 45.869 4.856C45.605 5.04 45.405 5.316 45.269 5.684C45.133 6.044 45.065 6.496 45.065 7.04C45.065 7.576 45.133 8.028 45.269 8.396C45.405 8.764 45.605 9.04 45.869 9.224C46.133 9.408 46.457 9.5 46.841 9.5C47.225 9.5 47.545 9.408 47.801 9.224C48.065 9.04 48.265 8.764 48.401 8.396C48.537 8.028 48.605 7.576 48.605 7.04C48.605 6.496 48.537 6.044 48.401 5.684C48.265 5.316 48.065 5.04 47.801 4.856C47.545 4.672 47.225 4.58 46.841 4.58ZM58.8286 3.08V4.676H56.2486V11H54.1846V4.676H51.5926V3.08H58.8286ZM60.3684 11V3.08H66.5364V4.676H62.4324V6.284H65.6964V7.784H62.4324V9.404H66.6924V11H60.3684Z" fill="black"/>
<path d="M38.3332 22.3333H24.9998C24.1158 22.3333 23.2679 22.6845 22.6428 23.3096C22.0177 23.9348 21.6665 24.7826 21.6665 25.6667V52.3333C21.6665 53.2174 22.0177 54.0652 22.6428 54.6904C23.2679 55.3155 24.1158 55.6667 24.9998 55.6667H44.9998C45.8839 55.6667 46.7317 55.3155 47.3569 54.6904C47.982 54.0652 48.3332 53.2174 48.3332 52.3333V32.3333M38.3332 22.3333L48.3332 32.3333M38.3332 22.3333V32.3333H48.3332M34.9998 49V39M29.9998 44H39.9998" stroke="#101828" stroke-width="2" stroke-linecap="round" stroke-linejoin="round"/>
</svg>
